#Comment line ignore any data following # character 
#Hierarchical Translation and Rotation (.htr) file 
[Header]	
#Header keywords are followed by a single value 
FileType HTR		#Single word string
DataType HTRS		#Translation followed by rotation and scale data
FileVersion 1		#integer
NumSegments 64		#integer
NumFrames 3		#integer
DataFrameRate 30		#integer, data frame rate in this file
EulerRotationOrder ZYX
CalibrationUnits mm
RotationUnits Degrees
GlobalAxisofGravity Y
BoneLengthAxis Y
ScaleFactor 1.00
[SegmentNames&Hierarchy]
#CHILD	PARENT
Pinger_Root GLOBAL
Pelvis Pinger_Root
L_Hip Pelvis
R_Hip Pelvis
Rear_Leg01 Pelvis
Spine1 Pelvis
L_Leg01 L_Hip
L_Leg02 L_Leg01
L_Leg03 L_Leg02
L_Foot L_Leg03
L_Toe1_01 L_Foot
L_Toe2_01 L_Foot
L_Toe3_01 L_Foot
planeAlignerLeft L_Foot
L_Toe1_02 L_Toe1_01
L_Toe1_03 L_Toe1_02
L_Toe2_02 L_Toe2_01
L_Toe2_03 L_Toe2_02
L_Toe3_02 L_Toe3_01
L_Toe3_03 L_Toe3_02
planeLockWeightLeft planeAlignerLeft
R_Leg01 R_Hip
R_Leg02 R_Leg01
R_Leg03 R_Leg02
R_Foot R_Leg03
planeAlignerRight R_Foot
R_Toe1_01 R_Foot
R_Toe2_01 R_Foot
R_Toe3_01 R_Foot
planeLockWeightRight planeAlignerRight
R_Toe1_02 R_Toe1_01
R_Toe1_03 R_Toe1_02
R_Toe2_02 R_Toe2_01
R_Toe2_03 R_Toe2_02
R_Toe3_02 R_Toe3_01
R_Toe3_03 R_Toe3_02
Rear_Leg02 Rear_Leg01
Rear_Leg03 Rear_Leg02
Rear_Leg04 Rear_Leg03
Rear_Foot Rear_Leg04
planeAlignerCenter Rear_Foot
Rear_Toe1_01 Rear_Foot
Rear_Toe2_01 Rear_Foot
Rear_Toe3_01 Rear_Foot
planeLockWeightCenter planeAlignerCenter
Rear_Toe1_02 Rear_Toe1_01
Rear_Toe1_03 Rear_Toe1_02
Rear_Toe2_02 Rear_Toe2_01
Rear_Toe2_03 Rear_Toe2_02
Rear_Toe3_02 Rear_Toe3_01
Rear_Toe3_03 Rear_Toe3_02
Back_Bone Spine1
Head Spine1
Motor_Bone Back_Bone
Ping_Mechanism Back_Bone
BN_LookIK Head
bottomMouth Head
L_Mouth01 Head
L_mouthFront Head
mouthGun Head
R_Mouth01 Head
R_mouthFront Head
TopMouth Head
weapon_bone Head
[BasePosition]
#SegmentName Tx, Ty, Tz, Rx, Ry, Rz, BoneLength
Pinger_Root 0.000000 0.000000 0.000000 -90.000000 0.000000 0.000000 10.000000 
Pelvis 0.000000 0.000000 0.000000 0.000000 0.000000 0.000000 10.000000 
L_Hip 0.000000 0.000000 0.000000 0.000000 0.000000 0.000000 10.000000 
R_Hip 0.000000 0.000000 0.000000 0.000000 0.000000 0.000000 10.000000 
Rear_Leg01 0.000000 0.000000 0.000000 0.000000 0.000000 0.000000 10.000000 
Spine1 0.000000 0.000000 0.000000 0.000000 0.000000 0.000000 10.000000 
L_Leg01 0.000000 0.000000 0.000000 0.000000 0.000000 0.000000 10.000000 
L_Leg02 0.000000 0.000000 0.000000 0.000000 0.000000 0.000000 10.000000 
L_Leg03 0.000000 0.000000 0.000000 0.000000 0.000000 0.000000 10.000000 
L_Foot 0.000000 0.000000 0.000000 0.000000 0.000000 0.000000 10.000000 
L_Toe1_01 0.000000 0.000000 0.000000 0.000000 0.000000 0.000000 10.000000 
L_Toe2_01 0.000000 0.000000 0.000000 0.000000 0.000000 0.000000 10.000000 
L_Toe3_01 0.000000 0.000000 0.000000 0.000000 0.000000 0.000000 10.000000 
planeAlignerLeft 0.000000 0.000000 0.000000 0.000000 0.000000 0.000000 10.000000 
L_Toe1_02 0.000000 0.000000 0.000000 0.000000 0.000000 0.000000 10.000000 
L_Toe1_03 0.000000 0.000000 0.000000 0.000000 0.000000 0.000000 10.000000 
L_Toe2_02 0.000000 0.000000 0.000000 0.000000 0.000000 0.000000 10.000000 
L_Toe2_03 0.000000 0.000000 0.000000 0.000000 0.000000 0.000000 10.000000 
L_Toe3_02 0.000000 0.000000 0.000000 0.000000 0.000000 0.000000 10.000000 
L_Toe3_03 0.000000 0.000000 0.000000 0.000000 0.000000 0.000000 10.000000 
planeLockWeightLeft 0.000000 0.000000 0.000000 0.000000 0.000000 0.000000 10.000000 
R_Leg01 0.000000 0.000000 0.000000 0.000000 0.000000 0.000000 10.000000 
R_Leg02 0.000000 0.000000 0.000000 0.000000 0.000000 0.000000 10.000000 
R_Leg03 0.000000 0.000000 0.000000 0.000000 0.000000 0.000000 10.000000 
R_Foot 0.000000 0.000000 0.000000 0.000000 0.000000 0.000000 10.000000 
planeAlignerRight 0.000000 0.000000 0.000000 0.000000 0.000000 0.000000 10.000000 
R_Toe1_01 0.000000 0.000000 0.000000 0.000000 0.000000 0.000000 10.000000 
R_Toe2_01 0.000000 0.000000 0.000000 0.000000 0.000000 0.000000 10.000000 
R_Toe3_01 0.000000 0.000000 0.000000 0.000000 0.000000 0.000000 10.000000 
planeLockWeightRight 0.000000 0.000000 0.000000 0.000000 0.000000 0.000000 10.000000 
R_Toe1_02 0.000000 0.000000 0.000000 0.000000 0.000000 0.000000 10.000000 
R_Toe1_03 0.000000 0.000000 0.000000 0.000000 0.000000 0.000000 10.000000 
R_Toe2_02 0.000000 0.000000 0.000000 0.000000 0.000000 0.000000 10.000000 
R_Toe2_03 0.000000 0.000000 0.000000 0.000000 0.000000 0.000000 10.000000 
R_Toe3_02 0.000000 0.000000 0.000000 0.000000 0.000000 0.000000 10.000000 
R_Toe3_03 0.000000 0.000000 0.000000 0.000000 0.000000 0.000000 10.000000 
Rear_Leg02 0.000000 0.000000 0.000000 0.000000 0.000000 0.000000 10.000000 
Rear_Leg03 0.000000 0.000000 0.000000 0.000000 0.000000 0.000000 10.000000 
Rear_Leg04 0.000000 0.000000 0.000000 0.000000 0.000000 0.000000 10.000000 
Rear_Foot 0.000000 0.000000 0.000000 0.000000 0.000000 0.000000 10.000000 
planeAlignerCenter 0.000000 0.000000 0.000000 0.000000 0.000000 0.000000 10.000000 
Rear_Toe1_01 0.000000 0.000000 0.000000 0.000000 0.000000 0.000000 10.000000 
Rear_Toe2_01 0.000000 0.000000 0.000000 0.000000 0.000000 0.000000 10.000000 
Rear_Toe3_01 0.000000 0.000000 0.000000 0.000000 0.000000 0.000000 10.000000 
planeLockWeightCenter 0.000000 0.000000 0.000000 0.000000 0.000000 0.000000 10.000000 
Rear_Toe1_02 0.000000 0.000000 0.000000 0.000000 0.000000 0.000000 10.000000 
Rear_Toe1_03 0.000000 0.000000 0.000000 0.000000 0.000000 0.000000 10.000000 
Rear_Toe2_02 0.000000 0.000000 0.000000 0.000000 0.000000 0.000000 10.000000 
Rear_Toe2_03 0.000000 0.000000 0.000000 0.000000 0.000000 0.000000 10.000000 
Rear_Toe3_02 0.000000 0.000000 0.000000 0.000000 0.000000 0.000000 10.000000 
Rear_Toe3_03 0.000000 0.000000 0.000000 0.000000 0.000000 0.000000 10.000000 
Back_Bone 0.000000 0.000000 0.000000 0.000000 0.000000 0.000000 10.000000 
Head 0.000000 0.000000 0.000000 0.000000 0.000000 0.000000 10.000000 
Motor_Bone 0.000000 0.000000 0.000000 0.000000 0.000000 0.000000 10.000000 
Ping_Mechanism 0.000000 0.000000 0.000000 0.000000 0.000000 0.000000 10.000000 
BN_LookIK 0.000000 0.000000 0.000000 0.000000 0.000000 0.000000 10.000000 
bottomMouth 0.000000 0.000000 0.000000 0.000000 0.000000 0.000000 10.000000 
L_Mouth01 0.000000 0.000000 0.000000 0.000000 0.000000 0.000000 10.000000 
L_mouthFront 0.000000 0.000000 0.000000 0.000000 0.000000 0.000000 10.000000 
mouthGun 0.000000 0.000000 0.000000 0.000000 0.000000 0.000000 10.000000 
R_Mouth01 0.000000 0.000000 0.000000 0.000000 0.000000 0.000000 10.000000 
R_mouthFront 0.000000 0.000000 0.000000 0.000000 0.000000 0.000000 10.000000 
TopMouth 0.000000 0.000000 0.000000 0.000000 0.000000 0.000000 10.000000 
weapon_bone 0.000000 0.000000 0.000000 0.000000 0.000000 0.000000 10.000000 
#Beginning of Data. Separated by tabs
#Fr	Tx	Ty	Tz	Rx	Ry	Rz	SF
[Pinger_Root]
11 860.058411 0.000076 0.000000 -0.000075 -0.000000 -0.000020 860.058411
12 955.043884 0.000084 0.000000 -0.000075 -0.000000 -0.000020 955.043884
13 1050.029297 0.000092 0.000000 -0.000075 -0.000000 -0.000020 1050.029297
[Pelvis]
11 518.251892 818.344849 4928.584473 54.022293 -75.686203 -102.614929 5022.869629
12 499.549957 876.347900 4841.923828 44.622700 -76.184654 -91.692719 4945.883301
13 481.154053 929.169250 4749.602539 38.755981 -75.886192 -84.018524 4863.495117
[L_Hip]
11 5.766392 125.831482 872.656799 -178.253311 -81.787758 87.381340 881.701050
12 5.766392 125.831482 872.656799 -178.253342 -81.787636 87.381248 881.701050
13 5.766392 125.831482 872.656799 -178.253326 -81.787636 87.381203 881.701050
[R_Hip]
11 5.765438 125.836372 -872.654907 -1.746690 81.787712 87.381248 881.699829
12 5.765438 125.836372 -872.654907 -1.746690 81.787666 87.381248 881.699829
13 5.765438 125.836372 -872.654907 -1.746701 81.787666 87.381203 881.699829
[Rear_Leg01]
11 -192.298416 -925.602966 -0.001907 143.377487 13.249506 -170.255096 945.367432
12 -192.298416 -925.602966 -0.001907 138.059464 6.673318 -179.516983 945.367432
13 -192.298416 -925.602966 -0.001907 136.282089 1.386943 175.332153 945.367432
[Spine1]
11 290.604584 5.007505 0.000477 31.909466 -19.740221 39.327995 290.647736
12 290.604584 5.007505 0.000477 29.900585 -19.485937 38.189510 290.647736
13 290.604584 5.007505 0.000477 27.802485 -18.804749 37.830429 290.647736
[L_Leg01]
11 761.932007 -0.002384 -0.069261 68.529747 -19.682962 -85.874161 761.932068
12 761.932007 -0.002384 -0.069261 69.809380 -22.574322 -87.134674 761.932068
13 761.932007 -0.002384 -0.069261 71.106056 -25.590332 -87.935417 761.932068
[L_Leg02]
11 1441.140503 -0.000954 -0.000715 -1.380753 0.655323 -105.946884 1441.140503
12 1441.140503 -0.000954 -0.000715 -1.332140 0.608049 -108.995689 1441.140503
13 1441.140503 -0.000954 -0.000715 -1.132558 0.513536 -113.205582 1441.140503
[L_Leg03]
11 1686.963989 -0.000715 -0.000954 0.056099 -0.011332 95.266113 1686.963989
12 1686.963989 -0.000715 -0.000954 0.050807 -0.010018 96.785660 1686.963989
13 1686.963989 -0.000715 -0.000954 0.043718 -0.010064 97.977386 1686.963989
[L_Foot]
11 3041.570068 -30.715107 11.297464 -4.561090 17.026146 65.753067 3041.746094
12 3041.570068 -30.715107 11.297464 -4.826286 17.090652 66.345741 3041.746094
13 3041.570068 -30.715107 11.297464 -5.124947 16.754583 67.483078 3041.746094
[L_Toe1_01]
11 -188.216690 -224.732346 -21.137953 89.328789 -1.871142 -162.484085 293.899567
12 -188.216690 -224.732346 -21.137953 89.298538 -1.858340 -161.674133 293.899567
13 -188.216690 -224.732346 -21.137953 89.268463 -1.845111 -160.864197 293.899567
[L_Toe2_01]
11 200.746536 -219.926590 148.838394 -77.646446 -13.444320 -44.894249 332.896027
12 200.746536 -219.926590 148.838394 -77.484428 -13.353902 -45.596081 332.896027
13 200.746536 -219.926590 148.838394 -77.323631 -13.261557 -46.297390 332.896027
[L_Toe3_01]
11 188.832520 -219.859131 -191.078659 -106.106750 16.724405 -46.813686 347.140900
12 188.832520 -219.859131 -191.078659 -106.313545 16.599476 -47.524700 347.140900
13 188.832520 -219.859131 -191.078659 -106.518547 16.472092 -48.234753 347.140900
[planeAlignerLeft]
11 -49.328617 -624.821899 0.025024 0.000000 -89.972023 -90.028198 626.766052
12 -52.399681 -633.394958 0.024261 0.000000 -90.000000 -90.030869 635.558716
13 -55.470737 -641.968018 0.023499 0.000000 -89.965736 -90.033516 644.360107
[L_Toe1_02]
11 413.761139 0.000477 0.000000 0.001400 -23.953724 0.001400 413.761139
12 413.761139 0.000477 0.000000 0.001398 -24.174086 0.001398 413.761139
13 413.761139 0.000477 0.000000 0.001396 -24.394444 0.001396 413.761139
[L_Toe1_03]
11 464.317322 0.000358 -0.000089 0.008443 74.016251 0.008443 464.317322
12 464.317322 0.000358 -0.000089 0.007904 72.921776 0.007904 464.317322
13 464.317322 0.000358 -0.000089 0.007279 71.441483 0.007279 464.317322
[L_Toe2_02]
11 342.235809 -0.000477 0.000238 0.001179 -78.754898 0.001179 342.235809
12 342.235809 -0.000477 0.000238 0.001179 -78.594139 0.001179 342.235809
13 342.235809 -0.000477 0.000238 0.001180 -78.433380 0.001180 342.235809
[L_Toe2_03]
11 420.210846 -0.000715 0.000000 -179.998032 72.350967 -179.994492 420.210846
12 420.210846 -0.000715 0.000000 -179.997940 72.737938 -179.994400 420.210846
13 420.210846 -0.000715 0.000000 -179.997849 73.124870 -179.994324 420.210846
[L_Toe3_02]
11 329.270111 0.000954 0.000000 0.001176 -82.140976 0.001176 329.270111
12 329.270111 0.000954 0.000000 0.001176 -82.195259 0.001176 329.270111
13 329.270111 0.000954 0.000000 0.001176 -81.989990 0.001176 329.270111
[L_Toe3_03]
11 439.137451 -0.001907 0.000954 -179.998337 70.747757 -179.994781 439.137451
12 439.137451 -0.001907 0.000954 -179.998276 71.124695 -179.994720 439.137451
13 439.137451 -0.001907 0.000954 -179.998199 71.501602 -179.994659 439.137451
[planeLockWeightLeft]
11 1000.000366 -0.000035 -0.000145 -0.011826 -0.004376 0.005620 1000.000366
12 1000.000366 -0.000023 -0.000154 -0.011826 -0.004376 0.005620 1000.000366
13 1000.000366 -0.000012 -0.000163 -0.011826 -0.004376 0.005620 1000.000366
[R_Leg01]
11 761.455627 -0.001907 -0.000358 94.147583 34.986851 88.463623 761.455688
12 761.455627 -0.001907 -0.000358 91.229332 28.722155 87.969131 761.455688
13 761.455627 -0.001907 -0.000358 88.251961 16.498671 88.251976 761.455688
[R_Leg02]
11 1441.140625 0.000000 -0.000238 0.208415 0.016691 -80.538826 1441.140625
12 1441.140625 0.000000 -0.000238 0.199296 0.004360 -91.845543 1441.140625
13 1441.140625 0.000000 -0.000238 0.159976 -0.041871 -109.831482 1441.140625
[R_Leg03]
11 1686.963989 0.000954 0.001431 -0.078238 0.016788 88.981056 1686.963989
12 1686.963989 0.000954 0.001431 -0.046036 0.010129 97.754364 1686.963989
13 1686.963989 0.000954 0.001431 -0.021542 0.006154 103.928062 1686.963989
[R_Foot]
11 3041.560059 -30.531288 -11.204481 0.758544 -24.397066 95.379333 3041.734131
12 3041.560059 -30.531288 -11.204481 2.562682 -26.882683 86.273102 3041.734131
13 3041.560059 -30.531288 -11.204481 4.501079 -29.284979 80.381622 3041.734131
[planeAlignerRight]
11 -206.219849 -729.387634 78.929062 0.000000 -89.951546 -90.024025 762.077942
12 -224.289063 -738.144348 76.902306 0.000000 -89.951546 -90.025940 775.291382
13 -242.358246 -746.901001 74.875557 0.000000 -89.951546 -90.027840 788.799683
[R_Toe1_01]
11 -188.383347 -224.864899 21.052242 90.991028 2.425776 -149.077271 294.101532
12 -188.383347 -224.864899 21.052242 91.030251 3.273097 -144.473434 294.101532
13 -188.383347 -224.864899 21.052242 91.118805 3.462542 -141.541443 294.101532
[R_Toe2_01]
11 200.637817 -220.002121 -148.787384 -102.521355 11.049287 -47.012791 332.857574
12 200.637817 -220.002121 -148.787384 -101.882248 12.274268 -43.780754 332.857574
13 200.637817 -220.002121 -148.787384 -101.684433 13.543182 -42.884018 332.857574
[R_Toe3_01]
11 188.606735 -220.092957 191.126343 -70.770584 -24.386503 -52.963928 347.192566
12 188.606735 -220.092957 191.126343 -71.786919 -26.185892 -49.844959 347.192566
13 188.606735 -220.092957 191.126343 -72.263596 -27.814026 -48.922817 347.192566
[planeLockWeightRight]
11 647.999268 0.000305 0.000076 -0.011823 -0.004379 -0.000027 647.999268
12 351.999390 0.000305 -0.000076 -0.011823 -0.004379 -0.000027 351.999390
13 103.999809 0.000000 -0.000000 -0.011823 -0.004379 -0.000027 103.999809
[R_Toe1_02]
11 413.762085 0.000477 -0.000119 0.001399 -24.067501 0.001399 413.762085
12 413.762085 0.000477 -0.000119 0.001396 -24.472359 0.001396 413.762085
13 413.762085 0.000477 -0.000119 0.001392 -24.877209 0.001392 413.762085
[R_Toe1_03]
11 464.317810 0.000000 0.001088 0.008019 73.167969 0.008019 464.317810
12 464.317810 0.000000 0.001088 0.006989 70.661064 0.006989 464.317810
13 464.317810 0.000000 0.001088 0.006194 68.154167 0.006194 464.317810
[R_Toe2_02]
11 342.234741 -0.000954 0.000238 -0.009941 -80.482872 0.004109 342.234741
12 342.234741 -0.000954 0.000238 -0.017886 -80.705490 0.010886 342.234741
13 342.234741 -0.000954 0.000238 -0.026192 -80.928123 0.018023 342.234741
[R_Toe2_03]
11 420.210846 0.000715 -0.000268 -179.996246 55.215427 -179.999908 420.210846
12 420.210846 0.000715 -0.000268 -179.996475 49.276733 179.999786 420.210846
13 420.210846 0.000715 -0.000268 -179.996613 44.446815 179.999588 420.210846
[R_Toe3_02]
11 329.270355 -0.000477 -0.000954 0.001176 -83.494530 0.001176 329.270355
12 329.270355 -0.000477 -0.000954 0.001175 -83.983696 0.001175 329.270355
13 329.270355 -0.000477 -0.000954 0.001175 -84.472710 0.001175 329.270355
[R_Toe3_03]
11 439.137939 0.000238 0.001431 -179.999374 62.623581 -179.995773 439.137939
12 439.137939 0.000238 0.001431 -179.995499 56.901875 -179.988205 439.137939
13 439.137939 0.000238 0.001431 -179.996536 52.166637 -179.989136 439.137939
[Rear_Leg02]
11 1162.777710 -0.029802 0.005960 -25.219427 14.206994 -153.425522 1162.777710
12 1162.777710 -0.029802 0.005960 -23.525118 13.844725 -167.811600 1162.777710
13 1162.777710 -0.029802 0.005960 -21.716354 12.467948 179.664154 1162.777710
[Rear_Leg03]
11 607.192505 -0.013351 -0.073195 0.009998 -0.006016 78.431473 607.192505
12 607.192505 -0.013351 -0.073195 0.010009 -0.005998 78.222801 607.192505
13 607.192505 -0.013351 -0.073195 0.009992 -0.006027 78.548622 607.192505
[Rear_Leg04]
11 995.874512 -0.020504 -0.011921 -0.043811 -0.015663 94.812622 995.874573
12 995.874512 -0.020504 -0.011921 -0.043723 -0.015907 94.172768 995.874573
13 995.874512 -0.020504 -0.011921 -0.043811 -0.015663 94.812630 995.874573
[Rear_Foot]
11 3096.176270 -0.067472 -0.041425 78.664536 60.720192 -124.250648 3096.176270
12 3096.176270 -0.067472 -0.041425 75.217476 62.216045 -122.132324 3096.176270
13 3096.176270 -0.067472 -0.041425 72.903984 64.593513 -119.259613 3096.176270
[planeAlignerCenter]
11 10.884263 89.155075 -693.859924 0.001750 -0.001564 173.590332 699.648987
12 27.913368 126.843613 -650.079773 0.001825 -0.001477 167.968109 662.927002
13 31.428364 110.447105 -651.519897 0.001866 -0.001425 164.729218 661.562134
[Rear_Toe1_01]
11 0.653352 83.966492 -371.173737 -0.123642 21.510910 83.112000 380.553192
12 0.653352 83.966492 -371.173737 -0.233414 20.263805 77.071510 380.553192
13 0.653352 83.966492 -371.173737 -0.320110 19.769398 73.381569 380.553192
[Rear_Toe2_01]
11 178.200760 -294.826019 -362.060547 -0.440578 45.982574 -79.100143 499.765686
12 178.200760 -294.826019 -362.060547 -1.130809 42.469391 -86.332420 499.765686
13 178.200760 -294.826019 -362.060547 -1.934446 42.829628 -91.627480 499.765686
[Rear_Toe3_01]
11 -153.359680 -308.780914 -362.060852 -2.993903 45.924767 -122.772942 499.952881
12 -153.359680 -308.780914 -362.060852 -4.706314 42.291985 -132.578278 499.952881
13 -153.359680 -308.780914 -362.060852 -5.153472 42.600922 -137.121552 499.952881
[planeLockWeightCenter]
11 1000.000488 0.000496 -0.000153 -0.011814 -0.004373 -0.000015 1000.000488
12 1000.000488 0.000496 -0.000150 -0.011814 -0.004373 -0.000015 1000.000488
13 1000.000488 0.000496 -0.000147 -0.011814 -0.004373 -0.000015 1000.000488
[Rear_Toe1_02]
11 379.707825 0.194073 0.000477 0.001332 -33.593781 0.001332 379.707855
12 379.707825 0.194073 0.000477 0.001332 -33.562790 0.001332 379.707855
13 379.707825 0.194073 0.000477 0.001332 -33.531796 0.001332 379.707855
[Rear_Toe1_03]
11 500.129700 0.165701 0.000119 0.007252 71.373695 0.007252 500.129761
12 500.129700 0.165701 0.000119 -0.004546 65.947227 -0.000971 500.129761
13 500.129700 0.165701 0.000119 -0.004906 68.818275 -0.001348 500.129761
[Rear_Toe2_02]
11 340.494507 0.000238 -0.000954 0.001174 -85.761871 0.001174 340.494507
12 340.494507 0.000238 -0.000954 0.001174 -88.257523 0.001174 340.494507
13 340.494507 0.000238 -0.000954 -0.002324 -86.928146 -0.002324 340.494507
[Rear_Toe2_03]
11 433.103577 0.000000 0.000238 179.987473 79.259148 179.987473 433.103546
12 433.103577 0.000000 0.000238 -179.994522 72.161148 -179.998062 433.103546
13 433.103577 0.000000 0.000238 -179.993500 76.046791 -179.997025 433.103546
[Rear_Toe3_02]
11 340.494141 -0.000358 -0.000477 0.001174 -86.214882 0.001174 340.494171
12 340.494141 -0.000358 -0.000477 0.001174 -88.892876 0.001174 340.494171
13 340.494141 -0.000358 -0.000477 0.001174 -87.927170 0.001174 340.494171
[Rear_Toe3_03]
11 433.103577 0.001431 -0.000238 -179.996246 78.018929 -179.992737 433.103546
12 433.103577 0.001431 -0.000238 -179.998444 70.202759 -179.994888 433.103546
13 433.103577 0.001431 -0.000238 -179.997833 73.186440 -179.994293 433.103546
[Back_Bone]
11 1312.175781 -701.934692 0.000954 -1.700753 -3.550500 -81.080811 1488.125488
12 1312.175781 -701.934692 0.000954 -1.193589 -3.647466 -80.542175 1488.125488
13 1312.175781 -701.934692 0.000954 -0.512019 -3.647213 -80.337898 1488.125488
[Head]
11 1406.159424 809.709290 0.001431 6.479109 -6.542442 -1.113302 1622.625488
12 1406.159424 809.709290 0.001431 6.427933 -7.115447 -0.810333 1622.625488
13 1406.159424 809.709290 0.001431 6.384283 -7.717838 0.360064 1622.625488
[Motor_Bone]
11 1158.364380 -417.834747 0.000477 -1.845118 -0.485017 -106.470413 1231.419434
12 1158.364380 -417.834747 0.000477 -1.729657 -0.306488 -106.290817 1231.419434
13 1158.364380 -417.834747 0.000477 -1.440879 0.000172 -105.983208 1231.419434
[Ping_Mechanism]
11 1163.192139 -382.917023 3.471920 0.000103 -0.000053 82.120995 1224.603394
12 1165.445801 -386.623230 16.274429 0.000103 -0.000053 82.120995 1228.009155
13 1166.064087 -387.862518 25.378735 0.000103 -0.000053 82.120995 1229.140747
[BN_LookIK]
11 193.241119 1380.371704 -0.002861 0.000000 89.965736 -31.038179 1393.832153
12 193.241119 1380.371704 -0.002861 0.000000 89.965736 -31.038179 1393.832153
13 193.241119 1380.371704 -0.002861 0.000000 89.965736 -31.038179 1393.832153
[bottomMouth]
11 -435.092926 615.759399 -0.000954 -0.000022 0.000016 73.527184 753.966492
12 -435.092926 615.759399 -0.000954 -0.000022 0.000016 73.527184 753.966492
13 -435.092926 615.759399 -0.000954 -0.000022 0.000016 73.527184 753.966492
[L_Mouth01]
11 554.440979 7.658243 838.222046 150.204178 23.759130 109.605339 1005.027161
12 554.440979 7.658243 838.222046 150.204178 23.759130 109.605339 1005.027161
13 554.440979 7.658243 838.222046 150.204178 23.759130 109.605339 1005.027161
[L_mouthFront]
11 551.629089 934.514771 339.150421 0.000081 2.804060 79.119301 1136.941284
12 551.629089 934.514771 339.150421 0.000081 2.804060 79.119301 1136.941284
13 551.629089 934.514771 339.150421 0.000081 2.804060 79.119301 1136.941284
[mouthGun]
11 55.332661 1627.420898 0.000000 0.000023 0.000009 -11.038128 1628.361328
12 55.332661 1627.420898 0.000000 0.000023 0.000009 -11.038128 1628.361328
13 55.332661 1627.420898 0.000000 0.000023 0.000009 -11.038128 1628.361328
[R_Mouth01]
11 554.442383 7.659197 -838.223938 29.795891 -23.759109 109.605331 1005.029541
12 554.442383 7.659197 -838.223938 29.795891 -23.759109 109.605331 1005.029541
13 554.442383 7.659197 -838.223938 29.795891 -23.759109 109.605331 1005.029541
[R_mouthFront]
11 551.629089 934.514282 -339.151367 0.000029 -2.803930 79.119133 1136.941162
12 551.629089 934.514282 -339.151367 0.000029 -2.803930 79.119133 1136.941162
13 551.629089 934.514282 -339.151367 0.000029 -2.803930 79.119133 1136.941162
[TopMouth]
11 461.269867 -56.106091 -0.008583 -0.000059 -0.000268 92.025169 464.669525
12 461.269867 -56.106091 -0.008583 -0.000059 -0.000268 92.025169 464.669525
13 461.269867 -56.106091 -0.008583 -0.000059 -0.000268 92.025169 464.669525
[weapon_bone]
11 -987.239868 1448.372803 0.001431 0.000000 89.965736 -31.038221 1752.833740
12 -987.239868 1448.372803 0.001431 0.000000 89.965736 -31.038221 1752.833740
13 -987.239868 1448.372803 0.001431 0.000000 89.965736 -31.038221 1752.833740
